<?xml version="1.0" encoding="UTF-8" standalone="no"?>
<!-- Created with Inkscape (http://www.inkscape.org/) -->

<svg
   version="1.1"
   id="svg2802"
   xml:space="preserve"
   width="682.66669"
   height="682.66669"
   viewBox="0 0 682.66669 682.66669"
   xmlns="http://www.w3.org/2000/svg"
   xmlns:svg="http://www.w3.org/2000/svg"><defs
     id="defs2806"><clipPath
       clipPathUnits="userSpaceOnUse"
       id="clipPath2816"><path
         d="M 0,512 H 512 V 0 H 0 Z"
         id="path2814" /></clipPath></defs><g
     id="g2808"
     transform="matrix(1.3333333,0,0,-1.3333333,0,682.66667)"><g
       id="g2810"><g
         id="g2812"
         clip-path="url(#clipPath2816)"><g
           id="g2818"
           transform="translate(411.6758,504.5)"><path
             d="m 0,0 c -34.952,0 -63.283,-28.333 -63.283,-63.283 v -121.935 h -183.675 v -126.565 h 183.675 v -121.934 c 0,-34.95 28.331,-63.283 63.283,-63.283 34.951,0 63.282,28.333 63.282,63.283 V -63.283 C 63.282,-28.333 34.951,0 0,0"
             style="fill:#e8b5b1;fill-opacity:1;fill-rule:nonzero;stroke:none"
             id="path2820" /></g><g
           id="g2822"
           transform="translate(164.7183,7.5)"><path
             d="M 0,0 C -34.952,0 -63.283,28.333 -63.283,63.283 V 403.717 C -63.283,438.667 -34.952,467 0,467 34.951,467 63.283,438.667 63.283,403.717 V 63.283 C 63.283,28.333 34.951,0 0,0"
             style="fill:#d6948c;fill-opacity:1;fill-rule:nonzero;stroke:none"
             id="path2824" /></g><g
           id="g2826"
           transform="translate(208.2202,260.5195)"><path
             d="m 0,0 c -16.308,0.035 -29.552,-10.463 -29.58,-23.45 -0.028,-12.988 13.169,-23.544 29.477,-23.58 16.308,-0.036 29.552,10.464 29.58,23.45 C 29.506,-10.593 16.308,-0.035 0,0"
             style="fill:#ffdbe0;fill-opacity:1;fill-rule:nonzero;stroke:none"
             id="path2828" /></g><g
           id="g2830"
           transform="translate(368.2764,260.1699)"><path
             d="m 0,0 c -16.309,0.035 -29.552,-10.464 -29.58,-23.451 -0.028,-12.987 13.169,-23.544 29.476,-23.58 16.309,-0.035 29.552,10.464 29.581,23.451 C 29.506,-10.594 16.308,-0.036 0,0"
             style="fill:#ffdbe0;fill-opacity:1;fill-rule:nonzero;stroke:none"
             id="path2832" /></g><g
           id="g2834"
           transform="translate(247.1738,459.1475)"><path
             d="M 0,0 C -9.412,2.301 -19.024,3.933 -28.742,4.876 -54.235,7.35 -80.49,5.147 -106.017,-1.685 l -10.394,-18.002 19.727,-73.623 32.73,-8.363 c 29.652,10.086 56.582,26.244 78.537,47.25 C 34.818,-35.062 27.205,-6.648 0,0"
             style="fill:#676fb2;fill-opacity:1;fill-rule:nonzero;stroke:none"
             id="path2836" /></g><g
           id="g2838"
           transform="translate(141.1567,457.4629)"><path
             d="m 0,0 c -0.017,-0.005 -0.034,-0.009 -0.05,-0.013 -0.005,-0.002 -0.007,-0.002 -0.012,-0.004 -25.481,-6.827 -49.303,-18.047 -70.14,-32.939 -7.943,-5.677 -15.449,-11.892 -22.453,-18.593 -20.235,-19.361 -12.623,-47.774 14.582,-54.424 34.117,-8.338 70.795,-7.751 106.068,1.699 0.004,0.001 0.006,0.002 0.011,0.003 4.748,1.272 9.433,2.709 14.057,4.283 -11.626,6.898 -20.112,18.066 -23.615,31.141 z"
             style="fill:#4c5699;fill-opacity:1;fill-rule:nonzero;stroke:none"
             id="path2840" /></g><g
           id="g2842"
           transform="translate(218.4316,464.0234)"><path
             d="m 0,0 c -4.142,7.525 -7.613,13.833 -8.605,15.636 -17.276,31.389 -63.729,34.053 -75.187,2.126 v -0.001 0.001 l -10.394,-18.003 12.732,-47.517 87.937,23.564 z"
             style="fill:#676fb2;fill-opacity:1;fill-rule:nonzero;stroke:none"
             id="path2844" /></g><g
           id="g2846"
           transform="translate(134.6396,481.7852)"><path
             d="M 0,0 V 0 -0.001 Z"
             style="fill:#676fb2;fill-opacity:1;fill-rule:nonzero;stroke:none"
             id="path2848" /></g><g
           id="g2850"
           transform="translate(132.7539,455.0098)"><path
             d="m 0,0 c -2.381,8.886 -1.717,18.312 1.886,26.775 -25.86,21.899 -64.784,-3.607 -64.051,-39.433 0.042,-2.064 0.19,-9.261 0.366,-17.845 l 6.483,-24.194 65.285,17.493 z"
             style="fill:#4c5699;fill-opacity:1;fill-rule:nonzero;stroke:none"
             id="path2852" /></g><g
           id="g2854"
           transform="translate(218.4316,464.0234)"><path
             d="M 0,0 -7.001,-6.699 C -24.604,-23.541 -44.7,-35.269 -76.765,-42.277 l -3.957,-8.213 4.992,-18.63 16.903,-6.287 c 31.552,8.086 56.274,22.589 76.989,42.408 C 16.226,-29.481 7.12,-12.936 0,0"
             style="fill:#d4d4ff;fill-opacity:1;fill-rule:nonzero;stroke:none"
             id="path2856" /></g><g
           id="g2858"
           transform="translate(144.0625,412.8066)"><path
             d="M 0,0 -2.396,8.939 C -35.104,1.788 -53.688,6.954 -73.108,11.7 c 0.302,-14.759 0.689,-33.633 0.771,-37.658 27.849,-6.807 56.51,-7.006 87.879,1.768 C 7.973,-17.938 2.541,-9.482 0,0"
             style="fill:#9ea2e3;fill-opacity:1;fill-rule:nonzero;stroke:none"
             id="path2860" /></g><g
           id="g2862"
           transform="translate(64.8643,358.7754)"><path
             d="m 0,0 c -21.478,5.25 -27.151,26.437 -11.178,41.72 3.235,3.094 6.605,6.09 10.075,8.979 l 0.359,-17.538 c 0.135,-6.63 4.757,-12.227 11.239,-13.613 55.627,-11.894 119.176,4.535 162.35,43.501 4.921,4.44 6.125,11.598 2.928,17.407 -2.069,3.761 -5.167,9.388 -8.462,15.376 4.447,-0.768 8.863,-1.681 13.218,-2.744 21.479,-5.252 27.152,-26.437 11.178,-41.72 C 142.035,3.843 66.785,-16.319 0,0 m 35.443,120.617 c 10.394,4.949 21.142,3.735 29.486,-3.331 3.99,-3.379 10.139,-1.732 11.905,3.191 3.696,10.298 12.395,16.727 23.866,17.639 12.505,0.98 29.006,-5.067 37.691,-20.847 0.247,-0.449 2.834,-5.149 6.307,-11.459 -1.207,-0.31 -2.353,-0.919 -3.317,-1.842 -18.234,-17.446 -38.026,-27.516 -66.18,-33.67 -27.915,-6.103 -44.75,-2.773 -61.73,1.348 l -0.247,12.083 c -0.369,18 10.894,31.498 22.219,36.888 M 162.332,73.768 C 140.012,53.771 118.538,44.302 92.72,37.063 65.99,29.589 40.311,28.612 14.24,34.087 L 13.789,56.15 c 21.197,-4.937 39.134,-6.078 64.615,-0.506 31.017,6.78 52.942,17.979 73.297,37.44 4.011,-7.289 8.033,-14.596 10.631,-19.316 m 184.48,79.457 c -39.031,0 -70.784,-31.753 -70.784,-70.784 V -31.993 H 170.637 c 0,48.361 0.232,45.391 -0.582,47.333 11.503,7.402 22.24,15.832 32.022,25.19 24.52,23.462 14.937,59.082 -17.988,67.129 -8.462,2.067 -17.134,3.618 -25.836,4.63 -3.682,6.691 -6.467,11.751 -6.72,12.211 0,0 0,0.001 -10e-4,0.001 -10.314,18.739 -31.22,30.215 -52.02,28.567 -14.035,-1.115 -25.718,-8.06 -32.682,-19.069 -11.532,6.045 -25.12,6.214 -37.834,0.162 C 10.154,125.191 -2.211,104.802 -1.773,83.424 L -1.488,69.486 C -8.528,64.252 -15.263,58.57 -21.548,52.558 -46.066,29.098 -36.485,-6.524 -3.561,-14.57 c 10.679,-2.61 21.594,-4.364 32.632,-5.289 v -22.995 c 0,-4.143 3.358,-7.5 7.5,-7.5 4.142,0 7.5,3.357 7.5,7.5 v 22.266 c 38.065,-0.57 76.79,8.606 111.566,27.43 v -53.335 c 0,-4.143 3.358,-7.5 7.5,-7.5 3.973,0 7.216,3.092 7.475,7 h 105.442 c 0.258,-3.908 3.501,-7 7.474,-7 4.143,0 7.5,3.357 7.5,7.5 V 82.441 c 0,30.759 25.025,55.784 55.784,55.784 30.758,0 55.782,-25.025 55.782,-55.784 v -308.256 c 0,-4.143 3.357,-7.5 7.5,-7.5 4.142,0 7.5,3.357 7.5,7.5 V 82.441 c 0,39.031 -31.753,70.784 -70.782,70.784"
             style="fill:#000000;fill-opacity:1;fill-rule:nonzero;stroke:none"
             id="path2864" /></g><g
           id="g2866"
           transform="translate(474.958,110.46)"><path
             d="m 0,0 c -4.143,0 -7.5,-3.357 -7.5,-7.5 v -32.177 c 0,-30.759 -25.023,-55.783 -55.782,-55.783 -30.759,0 -55.783,25.024 -55.783,55.783 V 89.257 c 0,4.142 -3.358,7.5 -7.5,7.5 -3.974,0 -7.217,-3.092 -7.475,-7 h -105.442 c -0.259,3.908 -3.501,7 -7.475,7 -4.142,0 -7.5,-3.358 -7.5,-7.5 V -39.677 c 0,-30.759 -25.024,-55.783 -55.783,-55.783 -30.759,0 -55.783,25.024 -55.783,55.783 v 215.138 c 0,4.143 -3.358,7.5 -7.5,7.5 -4.142,0 -7.5,-3.357 -7.5,-7.5 V -39.677 c 0,-39.03 31.753,-70.783 70.783,-70.783 39.03,0 70.783,31.753 70.783,70.783 V 74.757 h 105.392 V -39.677 c 0,-39.03 31.752,-70.783 70.783,-70.783 39.029,0 70.782,31.753 70.782,70.783 L 7.5,-7.5 C 7.5,-3.357 4.143,0 0,0"
             style="fill:#000000;fill-opacity:1;fill-rule:nonzero;stroke:none"
             id="path2868" /></g><g
           id="g2870"
           transform="translate(233.1616,254.5195)"><path
             d="m 0,0 v 12 c 0,4.143 -3.358,7.5 -7.5,7.5 -4.142,0 -7.5,-3.357 -7.5,-7.5 V 0 c 0,-4.143 3.358,-7.5 7.5,-7.5 4.142,0 7.5,3.357 7.5,7.5"
             style="fill:#000000;fill-opacity:1;fill-rule:nonzero;stroke:none"
             id="path2872" /></g><g
           id="g2874"
           transform="translate(350.5586,247.0195)"><path
             d="m 0,0 c 4.143,0 7.5,3.357 7.5,7.5 v 12 C 7.5,23.643 4.143,27 0,27 -4.143,27 -7.5,23.643 -7.5,19.5 V 7.5 C -7.5,3.357 -4.143,0 0,0"
             style="fill:#000000;fill-opacity:1;fill-rule:nonzero;stroke:none"
             id="path2876" /></g><g
           id="g2878"
           transform="translate(288.2925,230.8604)"><path
             d="m 0,0 c 14.124,-12.386 36.411,-2.337 36.411,16.505 0,4.142 -3.358,7.5 -7.5,7.5 -4.142,0 -7.5,-3.358 -7.5,-7.5 0,-3.836 -3.12,-6.956 -6.955,-6.956 -3.836,0 -6.956,3.12 -6.956,6.956 0,4.142 -3.358,7.5 -7.5,7.5 -4.142,0 -7.5,-3.358 -7.5,-7.5 0,-3.836 -3.12,-6.956 -6.956,-6.956 -3.835,0 -6.955,3.12 -6.955,6.956 0,4.142 -3.358,7.5 -7.5,7.5 -4.142,0 -7.5,-3.358 -7.5,-7.5 C -36.411,-2.326 -14.134,-12.395 0,0"
             style="fill:#000000;fill-opacity:1;fill-rule:nonzero;stroke:none"
             id="path2880" /></g></g></g></g></svg>
