<svg xmlns="http://www.w3.org/2000/svg" xmlns:xlink="http://www.w3.org/1999/xlink" width="500" zoomAndPan="magnify" viewBox="0 0 375 374.999991" height="500" preserveAspectRatio="xMidYMid meet" version="1.0"><defs><g/><clipPath id="3936038f94"><path d="M 39.320312 39.320312 L 335.679688 39.320312 L 335.679688 335.679688 L 39.320312 335.679688 Z M 39.320312 39.320312 " clip-rule="nonzero"/></clipPath><clipPath id="86a9c7ec4f"><path d="M 187.5 39.320312 C 105.664062 39.320312 39.320312 105.664062 39.320312 187.5 C 39.320312 269.335938 105.664062 335.679688 187.5 335.679688 C 269.335938 335.679688 335.679688 269.335938 335.679688 187.5 C 335.679688 105.664062 269.335938 39.320312 187.5 39.320312 Z M 187.5 39.320312 " clip-rule="nonzero"/></clipPath><clipPath id="2a6525a15b"><path d="M 79.085938 97.164062 L 295.835938 97.164062 L 295.835938 277.914062 L 79.085938 277.914062 Z M 79.085938 97.164062 " clip-rule="nonzero"/></clipPath></defs><g clip-path="url(#3936038f94)"><g clip-path="url(#86a9c7ec4f)"><path fill="#000000" d="M 39.320312 39.320312 L 335.679688 39.320312 L 335.679688 335.679688 L 39.320312 335.679688 Z M 39.320312 39.320312 " fill-opacity="1" fill-rule="nonzero"/></g></g><g clip-path="url(#2a6525a15b)"><path fill="#ffffff" d="M 147.152344 277.914062 L 185.246094 186.871094 L 222.394531 277.914062 L 295.648438 277.914062 L 219.152344 97.082031 L 155.839844 97.082031 L 79.339844 277.914062 Z M 147.152344 277.914062 " fill-opacity="1" fill-rule="nonzero"/></g><g fill="#000000" fill-opacity="1"><g transform="translate(139.89424, 243.351483)"><g><path d="M -17.8125 -14.4375 C -17.726562 -15 -17.46875 -15.800781 -17.03125 -16.84375 C -16.914062 -17.101562 -16.800781 -17.367188 -16.6875 -17.640625 C -16.257812 -18.578125 -15.941406 -19.226562 -15.734375 -19.59375 C -15.523438 -19.96875 -15.238281 -20.375 -14.875 -20.8125 C -13.988281 -21.894531 -13.125 -22.648438 -12.28125 -23.078125 L -11.828125 -23.3125 L -10.59375 -21.859375 C -9.75 -20.890625 -9.332031 -20.394531 -9.34375 -20.375 C -9.351562 -20.363281 -9.550781 -20.171875 -9.9375 -19.796875 C -11.082031 -18.710938 -12.007812 -17.550781 -12.71875 -16.3125 C -12.882812 -16.039062 -13.023438 -15.773438 -13.140625 -15.515625 C -13.554688 -14.523438 -13.597656 -13.726562 -13.265625 -13.125 C -13.078125 -12.78125 -12.820312 -12.535156 -12.5 -12.390625 C -12.5 -12.390625 -12.410156 -12.351562 -12.234375 -12.28125 C -12.054688 -12.21875 -11.785156 -12.253906 -11.421875 -12.390625 C -11.046875 -12.554688 -10.65625 -12.832031 -10.25 -13.21875 C -9.84375 -13.601562 -9.191406 -14.347656 -8.296875 -15.453125 C -7.078125 -16.941406 -6.113281 -17.953125 -5.40625 -18.484375 C -4.707031 -19.023438 -3.9375 -19.320312 -3.09375 -19.375 C -2.0625 -19.445312 -1.039062 -19.269531 -0.03125 -18.84375 C 0.507812 -18.613281 1.035156 -18.320312 1.546875 -17.96875 C 3.472656 -16.613281 4.265625 -14.6875 3.921875 -12.1875 C 3.804688 -11.375 3.515625 -10.425781 3.046875 -9.34375 C 2.953125 -9.113281 2.722656 -8.609375 2.359375 -7.828125 C 1.992188 -7.046875 1.441406 -6.175781 0.703125 -5.21875 C 0.316406 -4.726562 -0.1875 -4.195312 -0.8125 -3.625 C -1.4375 -3.050781 -1.929688 -2.660156 -2.296875 -2.453125 L -2.765625 -2.25 L -3.796875 -3.40625 C -4.484375 -4.125 -4.941406 -4.632812 -5.171875 -4.9375 L -5.46875 -5.390625 L -4.359375 -6.375 C -2.742188 -7.882812 -1.695312 -9.207031 -1.21875 -10.34375 C -1.1875 -10.40625 -1.15625 -10.46875 -1.125 -10.53125 C -0.832031 -11.226562 -0.710938 -11.789062 -0.765625 -12.21875 C -0.828125 -13.070312 -1.148438 -13.625 -1.734375 -13.875 C -1.816406 -13.914062 -1.90625 -13.941406 -2 -13.953125 C -2.53125 -14.109375 -3.039062 -14 -3.53125 -13.625 C -4.03125 -13.25 -4.796875 -12.390625 -5.828125 -11.046875 C -7.203125 -9.203125 -8.390625 -7.984375 -9.390625 -7.390625 C -10.390625 -6.804688 -11.53125 -6.648438 -12.8125 -6.921875 C -13.257812 -7.015625 -13.675781 -7.140625 -14.0625 -7.296875 C -14.957031 -7.679688 -15.765625 -8.28125 -16.484375 -9.09375 C -17.679688 -10.445312 -18.125 -12.226562 -17.8125 -14.4375 Z M -17.8125 -14.4375 "/></g></g></g><g fill="#000000" fill-opacity="1"><g transform="translate(146.749363, 227.308593)"><g><path d="M -2.359375 -11.875 L -3.390625 -12.3125 L -4.09375 -10.671875 C -4.601562 -9.410156 -4.804688 -8.445312 -4.703125 -7.78125 C -4.609375 -7.113281 -4.160156 -6.78125 -3.359375 -6.78125 C -2.734375 -6.757812 -2.226562 -7.101562 -1.84375 -7.8125 C -1.457031 -8.53125 -1.273438 -9.375 -1.296875 -10.34375 L -1.359375 -11.453125 Z M -13.015625 -10.796875 C -12.890625 -11.566406 -12.5625 -12.578125 -12.03125 -13.828125 C -11.582031 -14.878906 -11.171875 -15.640625 -10.796875 -16.109375 C -10.421875 -16.585938 -9.988281 -17 -9.5 -17.34375 C -8.59375 -17.925781 -7.472656 -18.09375 -6.140625 -17.84375 C -4.816406 -17.601562 -2.507812 -16.757812 0.78125 -15.3125 L 4.34375 -13.75 L 2.75 -10.015625 L 2.078125 -10.40625 L 1.25 -10.546875 L 1.46875 -9.40625 C 1.707031 -7.46875 1.316406 -5.710938 0.296875 -4.140625 C -0.359375 -3.148438 -1.171875 -2.550781 -2.140625 -2.34375 C -3.109375 -2.132812 -4.1875 -2.332031 -5.375 -2.9375 C -7.4375 -4 -8.253906 -5.859375 -7.828125 -8.515625 C -7.648438 -9.753906 -7.25 -11.070312 -6.625 -12.46875 C -6.382812 -13.039062 -6.316406 -13.378906 -6.421875 -13.484375 C -6.535156 -13.628906 -6.765625 -13.691406 -7.109375 -13.671875 C -7.847656 -13.617188 -8.484375 -12.9375 -9.015625 -11.625 C -9.554688 -10.3125 -9.78125 -8.960938 -9.6875 -7.578125 L -9.640625 -6.78125 L -9.921875 -6.65625 C -10.171875 -6.601562 -10.675781 -6.53125 -11.4375 -6.4375 C -12.207031 -6.34375 -12.625 -6.3125 -12.6875 -6.34375 C -12.726562 -6.363281 -12.800781 -6.597656 -12.90625 -7.046875 C -13.007812 -7.503906 -13.085938 -8.007812 -13.140625 -8.5625 C -13.191406 -9.28125 -13.148438 -10.023438 -13.015625 -10.796875 Z M -13.015625 -10.796875 "/></g></g></g><g fill="#000000" fill-opacity="1"><g transform="translate(152.55831, 213.714042)"><g><path d="M -18.90625 -14.171875 C -18.875 -14.640625 -18.707031 -15.226562 -18.40625 -15.9375 C -18.375 -16.019531 -18.25 -16.296875 -18.03125 -16.765625 C -17.820312 -17.234375 -17.5 -17.695312 -17.0625 -18.15625 C -16.6875 -18.550781 -16.457031 -18.742188 -16.375 -18.734375 C -16.375 -18.734375 -16.363281 -18.726562 -16.34375 -18.71875 C -16.226562 -18.664062 -15.773438 -18.351562 -14.984375 -17.78125 C -14.191406 -17.21875 -13.742188 -16.894531 -13.640625 -16.8125 C -13.671875 -16.75 -13.859375 -16.53125 -14.203125 -16.15625 C -14.523438 -15.820312 -14.753906 -15.5 -14.890625 -15.1875 C -15.054688 -14.789062 -15.039062 -14.429688 -14.84375 -14.109375 C -14.6875 -13.816406 -13.796875 -13.320312 -12.171875 -12.625 L -10.71875 -16.046875 L -7.390625 -14.640625 L -8.84375 -11.25 L 1.5625 -6.796875 L -0.09375 -2.890625 L -10.5 -7.34375 L -11.46875 -5.09375 L -14.796875 -6.5 L -13.84375 -8.734375 L -13.875 -8.75 C -15.738281 -9.550781 -16.925781 -10.21875 -17.4375 -10.75 C -17.945312 -11.28125 -18.332031 -11.898438 -18.59375 -12.609375 C -18.8125 -13.148438 -18.914062 -13.671875 -18.90625 -14.171875 Z M -18.90625 -14.171875 "/></g></g></g><g fill="#000000" fill-opacity="1"><g transform="translate(156.508929, 204.468496)"><g><path d="M -12.6875 -11.78125 C -12.582031 -12.363281 -12.351562 -13.066406 -12 -13.890625 C -11.96875 -13.984375 -11.9375 -14.054688 -11.90625 -14.109375 C -11.476562 -15.128906 -10.984375 -15.9375 -10.421875 -16.53125 C -9.859375 -17.132812 -9.144531 -17.585938 -8.28125 -17.890625 C -7.40625 -18.210938 -6.53125 -18.347656 -5.65625 -18.296875 C -4.78125 -18.253906 -3.722656 -18 -2.484375 -17.53125 L -0.765625 -16.859375 L -2.78125 -12.109375 C -4.007812 -9.234375 -4.609375 -7.679688 -4.578125 -7.453125 C -4.578125 -7.390625 -4.546875 -7.34375 -4.484375 -7.3125 C -4.378906 -7.269531 -4.195312 -7.257812 -3.9375 -7.28125 C -3.914062 -7.289062 -3.878906 -7.285156 -3.828125 -7.265625 C -2.648438 -7.347656 -1.734375 -8.128906 -1.078125 -9.609375 C -0.890625 -10.035156 -0.769531 -10.359375 -0.71875 -10.578125 C -0.664062 -10.804688 -0.660156 -11.191406 -0.703125 -11.734375 C -0.742188 -12.460938 -0.851562 -13.015625 -1.03125 -13.390625 L -1.265625 -13.921875 L -0.28125 -14.5625 C 0.269531 -14.9375 0.738281 -15.238281 1.125 -15.46875 C 1.332031 -15.582031 1.457031 -15.640625 1.5 -15.640625 C 1.550781 -15.640625 1.585938 -15.632812 1.609375 -15.625 C 1.691406 -15.59375 1.773438 -15.523438 1.859375 -15.421875 C 2.078125 -15.210938 2.304688 -14.789062 2.546875 -14.15625 C 2.796875 -13.53125 2.96875 -12.988281 3.0625 -12.53125 C 3.1875 -11.976562 3.222656 -11.316406 3.171875 -10.546875 C 3.109375 -9.742188 2.859375 -8.859375 2.421875 -7.890625 C 2.359375 -7.734375 2.296875 -7.585938 2.234375 -7.453125 C 1.953125 -6.796875 1.660156 -6.25 1.359375 -5.8125 C 1.054688 -5.382812 0.640625 -4.929688 0.109375 -4.453125 C -1.296875 -3.242188 -3.035156 -2.800781 -5.109375 -3.125 C -5.628906 -3.207031 -6.445312 -3.488281 -7.5625 -3.96875 C -8.675781 -4.445312 -9.457031 -4.847656 -9.90625 -5.171875 C -11.007812 -6.035156 -11.804688 -7.035156 -12.296875 -8.171875 C -12.796875 -9.304688 -12.925781 -10.507812 -12.6875 -11.78125 Z M -7.90625 -13.65625 C -8.3125 -13.332031 -8.617188 -12.921875 -8.828125 -12.421875 C -8.867188 -12.316406 -8.953125 -12.066406 -9.078125 -11.671875 C -9.210938 -11.273438 -9.191406 -10.816406 -9.015625 -10.296875 C -8.953125 -10.109375 -8.789062 -9.84375 -8.53125 -9.5 C -8.269531 -9.164062 -8.085938 -8.976562 -7.984375 -8.9375 C -7.941406 -8.925781 -7.550781 -9.789062 -6.8125 -11.53125 L -5.671875 -14.171875 L -6.0625 -14.21875 C -6.726562 -14.34375 -7.34375 -14.15625 -7.90625 -13.65625 Z M -7.90625 -13.65625 "/></g></g></g><g fill="#000000" fill-opacity="1"><g transform="translate(162.455533, 190.551791)"><g><path d="M -0.578125 -1.78125 L -19.6875 -9.9375 L -17.59375 -14.59375 L -15.96875 -14.859375 C -15.226562 -14.972656 -13.523438 -15.207031 -10.859375 -15.5625 C -5.546875 -16.25 -2.691406 -16.632812 -2.296875 -16.71875 L -2.6875 -16.890625 C -2.8125 -16.941406 -2.957031 -17 -3.125 -17.0625 C -3.289062 -17.125 -3.492188 -17.203125 -3.734375 -17.296875 L -7.34375 -18.84375 C -7.707031 -19 -8.078125 -19.140625 -8.453125 -19.265625 L -14.59375 -21.84375 L -12.75 -26.171875 L 6.359375 -18.015625 L 5.40625 -15.78125 L 4.421875 -13.546875 L 2.53125 -13.234375 C 1.082031 -13.015625 -1.140625 -12.710938 -4.140625 -12.328125 C -7.609375 -11.878906 -9.628906 -11.609375 -10.203125 -11.515625 L -11.53125 -11.34375 L -10.4375 -10.9375 C -9.675781 -10.6875 -7.535156 -9.847656 -4.015625 -8.421875 L 1.328125 -6.21875 Z M -0.578125 -1.78125 "/></g></g></g><g fill="#000000" fill-opacity="1"><g transform="translate(170.219173, 172.382719)"><g><path d="M -12.6875 -11.78125 C -12.582031 -12.363281 -12.351562 -13.066406 -12 -13.890625 C -11.96875 -13.984375 -11.9375 -14.054688 -11.90625 -14.109375 C -11.476562 -15.128906 -10.984375 -15.9375 -10.421875 -16.53125 C -9.859375 -17.132812 -9.144531 -17.585938 -8.28125 -17.890625 C -7.40625 -18.210938 -6.53125 -18.347656 -5.65625 -18.296875 C -4.78125 -18.253906 -3.722656 -18 -2.484375 -17.53125 L -0.765625 -16.859375 L -2.78125 -12.109375 C -4.007812 -9.234375 -4.609375 -7.679688 -4.578125 -7.453125 C -4.578125 -7.390625 -4.546875 -7.34375 -4.484375 -7.3125 C -4.378906 -7.269531 -4.195312 -7.257812 -3.9375 -7.28125 C -3.914062 -7.289062 -3.878906 -7.285156 -3.828125 -7.265625 C -2.648438 -7.347656 -1.734375 -8.128906 -1.078125 -9.609375 C -0.890625 -10.035156 -0.769531 -10.359375 -0.71875 -10.578125 C -0.664062 -10.804688 -0.660156 -11.191406 -0.703125 -11.734375 C -0.742188 -12.460938 -0.851562 -13.015625 -1.03125 -13.390625 L -1.265625 -13.921875 L -0.28125 -14.5625 C 0.269531 -14.9375 0.738281 -15.238281 1.125 -15.46875 C 1.332031 -15.582031 1.457031 -15.640625 1.5 -15.640625 C 1.550781 -15.640625 1.585938 -15.632812 1.609375 -15.625 C 1.691406 -15.59375 1.773438 -15.523438 1.859375 -15.421875 C 2.078125 -15.210938 2.304688 -14.789062 2.546875 -14.15625 C 2.796875 -13.53125 2.96875 -12.988281 3.0625 -12.53125 C 3.1875 -11.976562 3.222656 -11.316406 3.171875 -10.546875 C 3.109375 -9.742188 2.859375 -8.859375 2.421875 -7.890625 C 2.359375 -7.734375 2.296875 -7.585938 2.234375 -7.453125 C 1.953125 -6.796875 1.660156 -6.25 1.359375 -5.8125 C 1.054688 -5.382812 0.640625 -4.929688 0.109375 -4.453125 C -1.296875 -3.242188 -3.035156 -2.800781 -5.109375 -3.125 C -5.628906 -3.207031 -6.445312 -3.488281 -7.5625 -3.96875 C -8.675781 -4.445312 -9.457031 -4.847656 -9.90625 -5.171875 C -11.007812 -6.035156 -11.804688 -7.035156 -12.296875 -8.171875 C -12.796875 -9.304688 -12.925781 -10.507812 -12.6875 -11.78125 Z M -7.90625 -13.65625 C -8.3125 -13.332031 -8.617188 -12.921875 -8.828125 -12.421875 C -8.867188 -12.316406 -8.953125 -12.066406 -9.078125 -11.671875 C -9.210938 -11.273438 -9.191406 -10.816406 -9.015625 -10.296875 C -8.953125 -10.109375 -8.789062 -9.84375 -8.53125 -9.5 C -8.269531 -9.164062 -8.085938 -8.976562 -7.984375 -8.9375 C -7.941406 -8.925781 -7.550781 -9.789062 -6.8125 -11.53125 L -5.671875 -14.171875 L -6.0625 -14.21875 C -6.726562 -14.34375 -7.34375 -14.15625 -7.90625 -13.65625 Z M -7.90625 -13.65625 "/></g></g></g><g fill="#000000" fill-opacity="1"><g transform="translate(176.165776, 158.466014)"><g><path d="M -15.515625 -10.125 L -17.390625 -10.921875 L -16.5625 -12.875 L -15.71875 -14.84375 L -13.84375 -14.046875 L -11.953125 -13.234375 L -11.171875 -15.046875 L -10.40625 -16.859375 L -8.6875 -16.125 L -7.015625 -15.40625 L -7.828125 -13.515625 L -8.640625 -11.609375 L -5.484375 -10.34375 C -3.703125 -9.632812 -2.613281 -9.238281 -2.21875 -9.15625 C -1.820312 -9.082031 -1.46875 -9.21875 -1.15625 -9.5625 C -0.71875 -10.082031 -0.5 -10.789062 -0.5 -11.6875 L -0.484375 -12.140625 L 0.671875 -12.125 L 1.84375 -12.125 L 2.1875 -11.625 C 2.53125 -11.125 2.710938 -10.515625 2.734375 -9.796875 C 2.765625 -9.078125 2.617188 -8.335938 2.296875 -7.578125 C 1.566406 -5.890625 0.546875 -4.90625 -0.765625 -4.625 C -1.378906 -4.507812 -1.976562 -4.53125 -2.5625 -4.6875 C -3.15625 -4.851562 -4.476562 -5.351562 -6.53125 -6.1875 L -10.296875 -7.703125 L -10.875 -6.359375 L -11.328125 -5.296875 L -13 -6.015625 L -14.71875 -6.75 L -14.25 -7.875 L -13.625 -9.3125 Z M -15.515625 -10.125 "/></g></g></g><g fill="#000000" fill-opacity="1"><g transform="translate(180.7909, 147.64194)"><g><path d="M -19.765625 -9.515625 C -19.816406 -9.535156 -19.46875 -10.425781 -18.71875 -12.1875 L -17.59375 -14.8125 L -10.59375 -16.109375 L -14.5625 -21.921875 L -12.328125 -27.125 L -10.671875 -24.828125 C -8.640625 -21.984375 -7.070312 -19.722656 -5.96875 -18.046875 L -5.265625 -17.078125 L 0.3125 -18.125 C 3.90625 -18.789062 5.9375 -19.144531 6.40625 -19.1875 L 6.90625 -19.265625 L 4.625 -13.953125 L 0.96875 -13.25 C 0.3125 -13.132812 -0.289062 -13.015625 -0.84375 -12.890625 C -1.40625 -12.773438 -1.835938 -12.675781 -2.140625 -12.59375 C -2.441406 -12.519531 -2.597656 -12.460938 -2.609375 -12.421875 C -2.585938 -12.367188 -1.90625 -11.347656 -0.5625 -9.359375 L 1.390625 -6.375 L 0.265625 -3.734375 C -0.472656 -1.992188 -0.863281 -1.132812 -0.90625 -1.15625 C -0.976562 -1.175781 -1.660156 -2.148438 -2.953125 -4.078125 C -4.253906 -6.003906 -5.363281 -7.6875 -6.28125 -9.125 C -7.226562 -10.625 -7.726562 -11.410156 -7.78125 -11.484375 C -7.90625 -11.535156 -8.664062 -11.4375 -10.0625 -11.1875 C -11.0625 -11.007812 -12.335938 -10.78125 -13.890625 -10.5 C -15.441406 -10.226562 -16.800781 -9.992188 -17.96875 -9.796875 C -19.144531 -9.597656 -19.742188 -9.503906 -19.765625 -9.515625 Z M -19.765625 -9.515625 "/></g></g></g></svg>